# xmcd CD database file
#
# Track frame offsets:
#	150
#	15718
#	34170
#	52082
#	66972
#	88133
#	101619
#	119471
#	135558
#	156185
#	168015
#	188464
#	205019
#	220039
#
# Disc length: 3127 seconds
#
# Revision: 0
# Processed by: cddbd v1.4b42PL1 Copyright (c) Steve Scherf et al.
# Submitted via: CDex 1.40Beta5
#
DISCID=bb0c350e
DTITLE=Kopstubbers - Zummerfeest
DYEAR=1900
DGENRE=Blues
TTITLE0=Massey Ferguson Rekkie
TTITLE1=Ienzoam and Ellendig
TTITLE2=Snel als de Wiend
TTITLE3=Zummerfeest
TTITLE4=Arie Bombarie
TTITLE5=Openbaorings van Jannes
TTITLE6=Familiebezuuk
TTITLE7=Met de Mot hen de Beer
TTITLE8=Kleine Hendiekep
TTITLE9=Elastiektwist
TTITLE10=Recept veur de Blues
TTITLE11=Allerlei
TTITLE12=Zinloos Geweld
TTITLE13=Rapide Tours
EXTD=ID3G:   0
EXTT0=
EXTT1=
EXTT2=
EXTT3=
EXTT4=
EXTT5=
EXTT6=
EXTT7=
EXTT8=
EXTT9=
EXTT10=
EXTT11=
EXTT12=
EXTT13=
PLAYORDER=
